/* XPM */
static char *de668197c7e44f7ca9bf38eb3c6b3efbdnheKd9gBq1NPEoc[] = {
/* columns rows colors chars-per-pixel */
"32 32 138 2 ",
"   c None",
".  c #E2161E",
"X  c #F1171C",
"o  c #F51A1C",
"O  c #F81A1A",
"+  c #F02818",
"@  c #E73A19",
"#  c #E31526",
"$  c #E31C24",
"%  c #ED1B24",
"&  c #F21B21",
"*  c #E42D26",
"=  c #E5242D",
"-  c #E9242C",
";  c #E62E2A",
":  c #E42626",
">  c #E53927",
",  c #E02536",
"<  c #EA2330",
"1  c #E62A33",
"2  c #E6373E",
"3  c #E94617",
"4  c #E5421E",
"5  c #E55714",
"6  c #E65A17",
"7  c #E6571C",
"8  c #E65C1B",
"9  c #E6601C",
"0  c #E8671F",
"q  c #E76C1D",
"w  c #E8711D",
"e  c #E97B1B",
"r  c #E54A25",
"t  c #E34628",
"y  c #E65223",
"u  c #E55D21",
"i  c #E44334",
"p  c #E66122",
"a  c #E8682D",
"s  c #E96D34",
"d  c #E96D39",
"f  c #B5315F",
"g  c #AB2F67",
"h  c #A73469",
"j  c #CD2946",
"k  c #89767E",
"l  c #997B72",
"z  c #E7434A",
"x  c #E8474F",
"c  c #E74A4F",
"v  c #E95358",
"b  c #EA7C4A",
"n  c #EB7C47",
"m  c #F19408",
"M  c #EA891A",
"N  c #EB9A17",
"B  c #EB9417",
"V  c #ECAB05",
"C  c #ECAE0D",
"Z  c #F3AE03",
"A  c #F9AF03",
"S  c #F3AF0B",
"D  c #ECB40D",
"F  c #ECB403",
"G  c #F4B203",
"H  c #FAB301",
"J  c #F7BB03",
"K  c #F3B208",
"L  c #ECA513",
"P  c #ECAC12",
"I  c #E5A91C",
"U  c #EDB114",
"Y  c #D69F2E",
"T  c #CA983B",
"R  c #E89526",
"E  c #E08038",
"W  c #D7AA2B",
"Q  c #D9A925",
"!  c #CCA837",
"~  c #C1A239",
"^  c #B28959",
"/  c #9EAA59",
"(  c #BDA841",
")  c #A9A75C",
"_  c #B2A752",
"`  c #9EA668",
"'  c #8CA478",
"]  c #D7804B",
"[  c #EB8154",
"{  c #F0BF4A",
"}  c #F9C944",
"|  c #F1C254",
" . c #763F9A",
".. c #663FA6",
"X. c #71649C",
"o. c #5347BC",
"O. c #4F51BF",
"+. c #6B48AB",
"@. c #625CAB",
"#. c #7159BB",
"$. c #3B46CD",
"%. c #3F48CC",
"&. c #3543D5",
"*. c #3C46D2",
"=. c #364BD5",
"-. c #3A49D0",
";. c #4D49C1",
":. c #454BCB",
">. c #4D4DC8",
",. c #4C51CB",
"<. c #5452C7",
"1. c #5252C9",
"2. c #585CCE",
"3. c #796AC0",
"4. c #8E3A84",
"5. c #8A7583",
"6. c #6DA38B",
"7. c #58A2A6",
"8. c #48A2B2",
"9. c #299FCE",
"0. c #35A1C6",
"q. c #32A0C9",
"w. c #3BA2DF",
"e. c #0F9FEB",
"r. c #05A1E7",
"t. c #00A2E9",
"y. c #0AA2E8",
"u. c #13A1E2",
"i. c #1CA2E4",
"p. c #00A1F3",
"a. c #26A0E2",
"s. c #31A0E0",
"d. c #3EA7E1",
"f. c #32A6EE",
"g. c #2AA3F0",
"h. c #40A2DE",
"j. c #80A382",
"k. c #85A791",
/* pixels */
"                                                                ",
"                                                                ",
"                              3.>.                              ",
"                          <.%.$.$.$.,.#.                        ",
"                      >.$.$.%.%.%.%.$.$.:.1.                    ",
"                1.:.$.$.%.%.%.%.:.%.$.$.%.$.$.,.2.              ",
"            ] k O.&.&.*.%.%.%.%.$.%.%.:.%.-.=.$.+.h             ",
"            3 J I ^ X.:.&.*.$.:.%.%.-.=.=.o.4.j X + n           ",
"          x $ N K G K W l @.*.&.*.=.;. .f = O & % t 6           ",
"          : # 9 D D C S G S T 5.+.g , o o & % % - u 5 [         ",
"        c # # > P C C C P C K }   % X % % % % % > 9 6 p         ",
"        1 $ $ # M D C C C V {       - X % % % % y 8 8 5         ",
"        . $ $ # y D C C V {           1 X % % ; 8 8 8 6 s       ",
"      z . $ $ $ * P D V |               - X % t 9 8 8 8 5       ",
"      $ $ $ : $ # e F |                   < % u 8 8 8 8 5 n     ",
"    x . $ $ $ $ # 4                         i 8 8 8 8 8 6 p     ",
"    2 $ $ $ $ $ $ >                         R 6 8 8 8 8 8 8     ",
"      . $ $ : $ # w D                     U P 9 8 8 8 8 6 d     ",
"      2 $ $ $ $ : L D C                 P C D e 7 8 8 8 5       ",
"        . $ $ # r D C C C             U C C C N u 8 8 6 a       ",
"        = $ $ # e D C C C C         U C C C C C q 7 6 5 [       ",
"        v . $ * P C C C C C Z     Z S C P C C D M 7 8 8         ",
"          $ # u D C C D A A Q ` k.( P A K C C D L p 5 b         ",
"          z # B D A A P _ 7.u.t.p.t.0.' W A Z C U e 6           ",
"            @ H S ! j.q.p.p.t.t.t.t.p.p.u.7.) I H m d           ",
"            E / 8.y.p.p.t.t.t.t.t.t.t.t.t.p.p.9.6.~             ",
"              g.y.t.t.t.t.t.t.t.t.t.t.t.t.t.t.t.f.              ",
"                    d.r.t.t.t.t.t.t.t.t.t.i.w.                  ",
"                        h.y.t.t.t.t.t.i.                        ",
"                              a.i.w.                            ",
"                                                                ",
"                                                                "
};
