/* XPM */
static char *_a42faf6c1e94f6cb0da184c6c43b547OLNuAB6qRBOXKJ5P[] = {
/* columns rows colors chars-per-pixel */
"16 16 113 2 ",
"   c None",
".  c #E2151D",
"X  c #E2151E",
"o  c #F71316",
"O  c #F3171C",
"+  c #F5161D",
"@  c #ED3613",
"#  c #E21525",
"$  c #E31525",
"%  c #E21426",
"&  c #E31526",
"*  c #EE1422",
"=  c #E31921",
"-  c #E31A22",
";  c #EC1F25",
":  c #D92339",
">  c #E32423",
",  c #E32722",
"<  c #EA2D22",
"1  c #E3212C",
"2  c #E4222C",
"3  c #E42C33",
"4  c #E43037",
"5  c #EC560E",
"6  c #EC4E11",
"7  c #E5481D",
"8  c #E55612",
"9  c #E55713",
"0  c #E6571A",
"q  c #E5541D",
"w  c #E65A18",
"e  c #E65A19",
"r  c #E65E19",
"t  c #E6581C",
"y  c #E65B1D",
"u  c #E55F1C",
"i  c #EF7E08",
"p  c #E66419",
"a  c #E6601E",
"s  c #E87917",
"d  c #E87418",
"f  c #E77A1D",
"g  c #E74321",
"h  c #E54621",
"j  c #E76123",
"k  c #E7662A",
"l  c #BD3551",
"z  c #A2306D",
"x  c #E74858",
"c  c #E84E5E",
"v  c #C77C44",
"b  c #E97347",
"n  c #EB7F51",
"m  c #EA9512",
"M  c #EFAF09",
"N  c #F7AF04",
"B  c #F8AE00",
"V  c #ECB305",
"C  c #ECB407",
"Z  c #EFB108",
"A  c #EDB30A",
"S  c #F7B300",
"D  c #F0B207",
"F  c #FAB400",
"G  c #FAB700",
"H  c #F6BC03",
"J  c #EBA212",
"K  c #EBA511",
"L  c #ECAA10",
"P  c #E8AC15",
"I  c #E5AC18",
"U  c #C98A38",
"Y  c #C39A39",
"T  c #DEA521",
"R  c #A8855A",
"E  c #ACA74E",
"W  c #A5A856",
"Q  c #EC8955",
"!  c #733696",
"~  c #6C3EA1",
"^  c #7B6F87",
"/  c #6F6597",
"(  c #3944CD",
")  c #3A45CD",
"_  c #3B46CD",
"`  c #3643D4",
"'  c #3542D7",
"]  c #3749D3",
"[  c #344BD6",
"{  c #4447C6",
"}  c #474CC2",
"|  c #454DCD",
" . c #4C4FCC",
".. c #5855C5",
"X. c #5857C9",
"o. c #5F62CF",
"O. c #5CA399",
"+. c #6AA789",
"@. c #73AA80",
"#. c #58A6A4",
"$. c #1FA2D2",
"%. c #23A2CD",
"&. c #2A9FEA",
"*. c #00A2E9",
"=. c #00A2EA",
"-. c #02A2EC",
";. c #07A2EC",
":. c #16A1E4",
">. c #1EA0E2",
",. c #00A1F1",
"<. c #00A1F2",
"1. c #00A1F3",
"2. c #26A0EC",
/* pixels */
"                                ",
"              ..X.              ",
"           ._ ) ) ) | o.        ",
"      v ^ } ' ` ] [ { ! l       ",
"    c 5 H T R / ~ z : + @ Q     ",
"    1 , K D S     o O ; q a     ",
"    X # s C         * < u 8     ",
"  4 = # 7             g r e k   ",
"  3 - & h             f 0 e j   ",
"    X & d V         A m t 8 Q   ",
"    1 > J D S     B M L p t     ",
"    x 6 G P E O.#.W I F i b     ",
"      U @.%.<.<.<.<.$.+.Y       ",
"        2.;.=.=.=.=.-.2.        ",
"              >.:.              ",
"                                "
};
