/* XPM */
static char *c8e88a3c9e89416afd5b93f6bb8e493538Fa6oWmo9jsmcfU[] = {
/* columns rows colors chars-per-pixel */
"48 48 162 2 ",
"   c None",
".  c #E2141C",
"X  c #F0151C",
"o  c #F41A1D",
"O  c #F81516",
"+  c #E5381D",
"@  c #E20F27",
"#  c #E21425",
"$  c #E31D25",
"%  c #ED1C24",
"&  c #E71728",
"*  c #F01620",
"=  c #F11E22",
"-  c #DB273A",
";  c #D63B36",
":  c #E42325",
">  c #EB2427",
",  c #E4232B",
"<  c #E9212C",
"1  c #E42E2B",
"2  c #E42D26",
"3  c #E6362B",
"4  c #E53F29",
"5  c #E52D35",
"6  c #E02436",
"7  c #E53037",
"8  c #E6353C",
"9  c #E5530E",
"0  c #EB530D",
"q  c #E55511",
"w  c #E55916",
"e  c #E65C1B",
"r  c #E5541D",
"t  c #E6621C",
"y  c #E76A1B",
"u  c #E8721F",
"i  c #DF532D",
"p  c #E64225",
"a  c #E54E20",
"s  c #E24E29",
"d  c #E75025",
"f  c #E75628",
"g  c #E55B20",
"h  c #E14831",
"j  c #E04433",
"k  c #E56123",
"l  c #E86A27",
"z  c #E97B22",
"x  c #E97123",
"c  c #E96E37",
"v  c #E86F38",
"b  c #AE3063",
"n  c #A7346B",
"m  c #A03670",
"M  c #CB2A49",
"N  c #D22B43",
"B  c #E63C42",
"V  c #97777B",
"C  c #E8494F",
"Z  c #E6434A",
"A  c #E84D53",
"S  c #E9575D",
"D  c #EB7E4D",
"F  c #EA7743",
"G  c #EB7F51",
"H  c #EE850F",
"J  c #EA811E",
"K  c #EA8C1C",
"L  c #EC9C1B",
"P  c #EB9717",
"I  c #ECAB05",
"U  c #ECAE0E",
"Y  c #F3AF05",
"T  c #F9AF02",
"R  c #F4AD0A",
"E  c #ECB30C",
"W  c #EDBA0C",
"Q  c #F4B204",
"!  c #F3B109",
"~  c #EBA213",
"^  c #ECAD13",
"/  c #E5AA1D",
"(  c #EBA918",
")  c #EBA01B",
"_  c #F3AB10",
"`  c #EDB114",
"'  c #EDBB10",
"]  c #D49E33",
"[  c #DBA727",
"{  c #C6A73F",
"}  c #DAA830",
"|  c #E0AB25",
" . c #AB855D",
".. c #B18858",
"X. c #B78E54",
"o. c #BCA649",
"O. c #9BA26C",
"+. c #92A56D",
"@. c #8DA37A",
"#. c #8BA474",
"$. c #98A37A",
"%. c #EC8456",
"&. c #C4A644",
"*. c #F1C353",
"=. c #793E97",
"-. c #73649D",
";. c #5249BF",
":. c #5856B9",
">. c #5653BE",
",. c #6941A8",
"<. c #6A45A7",
"1. c #7044A3",
"2. c #7264A0",
"3. c #3744CD",
"4. c #3B46CD",
"5. c #3F48CC",
"6. c #3643D5",
"7. c #3944D3",
"8. c #364BD5",
"9. c #3949D1",
"0. c #4C4CC6",
"q. c #444ACB",
"w. c #4D4EC9",
"e. c #524FC7",
"r. c #5C59C9",
"t. c #5A55C3",
"y. c #4754D2",
"u. c #5656D2",
"i. c #6B5EC0",
"p. c #6F68C8",
"a. c #7163C3",
"s. c #796DC6",
"d. c #823E8F",
"f. c #816E8A",
"g. c #806B93",
"h. c #3D9EBF",
"j. c #3FA2B9",
"k. c #6EA09A",
"l. c #4D9FB6",
"z. c #489FB9",
"x. c #56A0AF",
"c. c #41A2B9",
"v. c #60A1A4",
"b. c #189FDC",
"n. c #2C9FD3",
"m. c #329EDA",
"M. c #14A1DF",
"N. c #18A0DA",
"B. c #2AA1DC",
"V. c #089FEB",
"C. c #159FE2",
"Z. c #06A2E7",
"A. c #00A2E9",
"S. c #0BA1E5",
"D. c #19A1E4",
"F. c #11A2E6",
"G. c #00A2F3",
"H. c #22A2E3",
"J. c #29A0E1",
"K. c #5C9FD4",
"L. c #649FD1",
"P. c #44A2DC",
/* pixels */
"                                                                                                ",
"                                                                                                ",
"                                                                                                ",
"                                              a.w.                                              ",
"                                          t.q.4.4.4.r.                                          ",
"                                    s.w.4.4.5.5.q.4.4.3.e.i.                                    ",
"                                a.5.3.5.5.5.5.5.q.4.5.5.4.3.5.r.                                ",
"                            e.4.4.4.5.5.5.5.5.5.q.4.5.5.5.5.5.4.5.w.p.                          ",
"                      u.7.7.4.4.5.5.5.5.q.5.5.5.4.q.5.5.5.5.q.4.q.4.3.7.y.                      ",
"                    k X.-.q.6.6.5.5.5.5.5.5.5.5.4.4.5.5.5.5.q.4.8.9.9.<.b ;                     ",
"                  A + Q ! ]  .g.0.6.4.5.5.5.q.5.q.q.4.q.4.4.8.q.1.n M % o a D                   ",
"                  $ : ~ U ! Q ! [ V e.6.6.7.9.q.4.4.9.8.8.0.d.N = o o % > e k                   ",
"                  $ # J E U U U U Q / ..f.:.7.7.9.8.;.=.m - o o % % % % 3 e e                   ",
"                7 $ $ 1 W U U U U U Y ! Q ( X.2.,.n 6 o o o % > % % % % f e e k                 ",
"                : $ $ @ L E U U U U U U U E Q     O = % % % % % % % % < k e e 9                 ",
"              B $ $ $ $ s E U U U U U U U I         X % % % % % % % % h e e e e l               ",
"              . $ , $ $ 2 ~ U U ^ U U U I             X % % % % % % & g e e e e e               ",
"            S $ $ $ $ $ $ J U U U U U U                 % % % % % % 3 k e e e e e %.            ",
"            7 $ $ $ $ $ $ 4 E U U U I                     % % % % % d e e e e e e k             ",
"            $ $ $ $ $ $ $ @ ^ U U U                         % % % , k e e e e e e q             ",
"          7 $ $ $ $ $ $ $ # f W I                             X * j t e e e e e e e e           ",
"          . $ $ $ $ : $ $ $ : ^ *.                              & k e e e e e e e e 9           ",
"        Z # $ $ $ $ $ $ $ $ :                                     e e e e e e e e e e c         ",
"          $ $ $ $ $ $ $ $ $ : L                                 ` e e e e e e e e e q           ",
"          , $ $ $ $ $ $ $ $ p W ^                             ^ E z e e e e e e e e q           ",
"            $ $ $ $ $ $ $ # L E U `                         ` U U ^ r e e e e e e w %.          ",
"            5 $ : $ $ $ $ 1 W U U U ^                     ` U U U U u e e e e e e w             ",
"            C $ $ $ $ $ # x U U U U U `                 ^ U U U U U K e e e e e e F             ",
"              . $ $ $ $ : P U U U U U U U             U U U U U U U ( e e e e e e               ",
"              8 $ $ $ $ p ` U U U U U U U ^         E U U U U U U U E z e e e e e               ",
"                # $ $ # K E U U U U U U U U I     ! U U U U U U U U U ( r e e q                 ",
"                7 $ $ , W U U U U U U E T R / $.$.[ R T ! U ^ U U U U E x e e e                 ",
"                  $ # x E U U U E T T [ O.c.N.A.G.C.j.@.} R T ^ U U U U P e e G                 ",
"                  . $ ~ E U Y T R &.k.C.G.G.A.A.A.A.G.G.C.v.o.R T T E U ~ t g                   ",
"                  A 2 R T R { +.x.Z.G.A.Z.A.A.A.A.A.A.A.A.G.G.x.#.o._ T R y c                   ",
"                    0 / O.z.V.G.G.A.A.A.A.A.A.A.A.A.A.A.A.A.A.A.G.V.h.@.| H                     ",
"                      n.G.G.A.A.A.A.A.A.A.A.A.A.A.A.A.A.A.A.A.A.A.A.G.G.B.                      ",
"                          m.A.A.A.A.A.A.A.A.A.A.A.A.A.A.A.A.A.A.A.A.J.                          ",
"                              P.F.A.A.A.A.A.A.A.A.A.A.A.A.A.A.Z.H.                              ",
"                                  P.B.A.A.A.A.A.A.A.A.A.A.B.P.                                  ",
"                                        P.Z.A.A.A.A.Z.P.                                        ",
"                                            L.D.D.K.                                            ",
"                                                                                                ",
"                                                                                                ",
"                                                                                                ",
"                                                                                                ",
"                                                                                                ",
"                                                                                                "
};
